<svg width="72" height="72" viewBox="0 0 72 72" fill="none" xmlns="http://www.w3.org/2000/svg">
<circle cx="36" cy="36" r="36" fill="#F5F5F5"/>
<path d="M41.5625 19H30.9375L25.625 25.375H19.25C18.1228 25.375 17.0418 25.8228 16.2448 26.6198C15.4478 27.4168 15 28.4978 15 29.625V48.75C15 49.8772 15.4478 50.9582 16.2448 51.7552C17.0418 52.5522 18.1228 53 19.25 53H53.25C54.3772 53 55.4582 52.5522 56.2552 51.7552C57.0522 50.9582 57.5 49.8772 57.5 48.75V29.625C57.5 28.4978 57.0522 27.4168 56.2552 26.6198C55.4582 25.8228 54.3772 25.375 53.25 25.375H46.875L41.5625 19Z" stroke="black" stroke-opacity="0.81" stroke-width="3" stroke-linecap="round" stroke-linejoin="round"/>
<path d="M36.25 44.5C39.7708 44.5 42.625 41.6458 42.625 38.125C42.625 34.6042 39.7708 31.75 36.25 31.75C32.7292 31.75 29.875 34.6042 29.875 38.125C29.875 41.6458 32.7292 44.5 36.25 44.5Z" stroke="black" stroke-opacity="0.81" stroke-width="3" stroke-linecap="round" stroke-linejoin="round"/>
</svg>
