<svg width="393" height="79" viewBox="0 0 393 79" fill="none" xmlns="http://www.w3.org/2000/svg">
<rect width="393" height="79" fill="#F5F5F5"/>
<path d="M56.4951 17C56.9 17 57.2599 17.1027 57.5859 17.3096L57.7236 17.4043L66.1846 23.7637L66.1904 23.7686C66.4418 23.9514 66.6382 24.1831 66.7822 24.4707L66.7832 24.4727C66.928 24.7594 67 25.06 67 25.3809V38.9404C66.9999 39.217 66.9022 39.4559 66.6777 39.6787C66.4532 39.9016 66.2109 40 65.9287 40H59.8252C59.6484 40 59.507 39.9588 59.3867 39.8779L59.2725 39.7832C59.128 39.6389 59.0557 39.4686 59.0557 39.2393V30.8213H53.9443V39.2393C53.9443 39.4704 53.8714 39.6404 53.7275 39.7832C53.5832 39.9264 53.4111 39.9999 53.1768 40H47.0713C46.7891 40 46.5468 39.9016 46.3223 39.6787C46.0978 39.4559 46.0001 39.2171 46 38.9404V25.3809C46 25.06 46.072 24.7594 46.2168 24.4727C46.362 24.1852 46.5586 23.9527 46.8096 23.7695L46.8154 23.7646L55.2773 17.4033L55.2793 17.4023C55.6334 17.134 56.0327 17 56.4951 17ZM56.5 17.5615C56.2053 17.5615 55.9315 17.6454 55.6963 17.8154L55.627 17.8701L47.165 24.2002L47.1455 24.2158C46.98 24.353 46.8426 24.5152 46.7393 24.7021C46.6517 24.8606 46.5997 25.0303 46.5801 25.2061L46.5713 25.3809V39.4404H53.373V31.0205C53.373 30.7915 53.4459 30.6218 53.5908 30.4785L53.5928 30.4775C53.7372 30.3336 53.9089 30.2598 54.1426 30.2598H58.8574C59.0911 30.2598 59.2644 30.3329 59.4102 30.4775C59.5543 30.6207 59.627 30.7909 59.627 31.0205V39.4404H66.4287V25.3809C66.4287 25.1449 66.3757 24.9172 66.2637 24.708C66.1602 24.5149 66.0198 24.3487 65.8486 24.2109L65.8418 24.2061L65.835 24.2002L57.374 17.8701C57.1233 17.6642 56.8248 17.5615 56.5 17.5615Z" fill="white" stroke="#BFBFBF"/>
<path d="M44.784 59.5V51.1H45.984V59.5H44.784ZM38.76 59.5V51.1H39.96V59.5H38.76ZM39.84 55.756V54.712H44.892V55.756H39.84ZM51.0543 59.572C50.4143 59.572 49.8463 59.432 49.3503 59.152C48.8543 58.872 48.4623 58.488 48.1743 58C47.8863 57.504 47.7423 56.944 47.7423 56.32C47.7423 55.688 47.8863 55.128 48.1743 54.64C48.4623 54.152 48.8543 53.772 49.3503 53.5C49.8463 53.22 50.4143 53.08 51.0543 53.08C51.6863 53.08 52.2503 53.22 52.7463 53.5C53.2503 53.772 53.6423 54.152 53.9223 54.64C54.2103 55.12 54.3543 55.68 54.3543 56.32C54.3543 56.952 54.2103 57.512 53.9223 58C53.6423 58.488 53.2503 58.872 52.7463 59.152C52.2503 59.432 51.6863 59.572 51.0543 59.572ZM51.0543 58.564C51.4623 58.564 51.8263 58.472 52.1463 58.288C52.4743 58.104 52.7303 57.844 52.9143 57.508C53.0983 57.164 53.1903 56.768 53.1903 56.32C53.1903 55.864 53.0983 55.472 52.9143 55.144C52.7303 54.808 52.4743 54.548 52.1463 54.364C51.8263 54.18 51.4623 54.088 51.0543 54.088C50.6463 54.088 50.2823 54.18 49.9623 54.364C49.6423 54.548 49.3863 54.808 49.1943 55.144C49.0023 55.472 48.9063 55.864 48.9063 56.32C48.9063 56.768 49.0023 57.164 49.1943 57.508C49.3863 57.844 49.6423 58.104 49.9623 58.288C50.2823 58.472 50.6463 58.564 51.0543 58.564ZM55.9475 59.5V53.14H57.0515V54.832L56.8715 54.4C57.0715 53.984 57.3795 53.66 57.7955 53.428C58.2115 53.196 58.6955 53.08 59.2475 53.08C59.8555 53.08 60.3795 53.232 60.8195 53.536C61.2595 53.832 61.5475 54.284 61.6835 54.892L61.2155 54.7C61.4075 54.212 61.7435 53.82 62.2235 53.524C62.7035 53.228 63.2635 53.08 63.9035 53.08C64.4155 53.08 64.8675 53.18 65.2595 53.38C65.6515 53.58 65.9555 53.884 66.1715 54.292C66.3955 54.7 66.5075 55.216 66.5075 55.84V59.5H65.3555V55.972C65.3555 55.356 65.2115 54.892 64.9235 54.58C64.6355 54.268 64.2315 54.112 63.7115 54.112C63.3275 54.112 62.9915 54.192 62.7035 54.352C62.4155 54.512 62.1915 54.748 62.0315 55.06C61.8795 55.372 61.8035 55.76 61.8035 56.224V59.5H60.6515V55.972C60.6515 55.356 60.5075 54.892 60.2195 54.58C59.9395 54.268 59.5355 54.112 59.0075 54.112C58.6315 54.112 58.2995 54.192 58.0115 54.352C57.7235 54.512 57.4995 54.748 57.3395 55.06C57.1795 55.372 57.0995 55.76 57.0995 56.224V59.5H55.9475ZM71.4592 59.572C70.7792 59.572 70.1792 59.432 69.6592 59.152C69.1472 58.872 68.7472 58.488 68.4592 58C68.1792 57.512 68.0392 56.952 68.0392 56.32C68.0392 55.688 68.1752 55.128 68.4472 54.64C68.7272 54.152 69.1072 53.772 69.5872 53.5C70.0752 53.22 70.6232 53.08 71.2312 53.08C71.8472 53.08 72.3912 53.216 72.8632 53.488C73.3352 53.76 73.7032 54.144 73.9672 54.64C74.2392 55.128 74.3752 55.7 74.3752 56.356C74.3752 56.404 74.3712 56.46 74.3632 56.524C74.3632 56.588 74.3592 56.648 74.3512 56.704H68.9392V55.876H73.7512L73.2832 56.164C73.2912 55.756 73.2072 55.392 73.0312 55.072C72.8552 54.752 72.6112 54.504 72.2992 54.328C71.9952 54.144 71.6392 54.052 71.2312 54.052C70.8312 54.052 70.4752 54.144 70.1632 54.328C69.8512 54.504 69.6072 54.756 69.4312 55.084C69.2552 55.404 69.1672 55.772 69.1672 56.188V56.38C69.1672 56.804 69.2632 57.184 69.4552 57.52C69.6552 57.848 69.9312 58.104 70.2832 58.288C70.6352 58.472 71.0392 58.564 71.4952 58.564C71.8712 58.564 72.2112 58.5 72.5152 58.372C72.8272 58.244 73.0992 58.052 73.3312 57.796L73.9672 58.54C73.6792 58.876 73.3192 59.132 72.8872 59.308C72.4632 59.484 71.9872 59.572 71.4592 59.572Z" fill="#BFBFBF"/>
<path d="M135.97 36.6585L122.879 36.6921C121.722 36.695 120.611 36.2387 119.791 35.4234C118.972 34.608 118.51 33.5006 118.507 32.3446C118.505 31.1886 118.963 30.0788 119.78 29.2593C120.596 28.4398 121.705 27.9777 122.863 27.9747L138.135 27.9356C139.293 27.9326 140.402 27.4706 141.218 26.6511C142.035 25.8316 142.493 24.7217 142.49 23.5657C142.488 22.4098 142.026 21.3023 141.206 20.487C140.386 19.6717 139.276 19.2153 138.118 19.2183L131.045 19.2364M139.238 33.926C138.37 33.9282 137.538 34.2747 136.925 34.8894C136.313 35.504 135.97 36.3364 135.971 37.2034C135.973 38.0703 136.32 38.9009 136.934 39.5124C137.549 40.1239 138.382 40.4662 139.25 40.464C140.118 40.4617 140.95 40.1152 141.563 39.5006C142.175 38.8859 142.519 38.0536 142.517 37.1866C142.515 36.3196 142.169 35.489 141.554 34.8775C140.939 34.266 140.106 33.9237 139.238 33.926ZM127.204 16.5221C126.774 16.5232 126.349 16.6088 125.952 16.7741C125.555 16.9394 125.195 17.1811 124.892 17.4855C124.588 17.7898 124.348 18.1508 124.184 18.5478C124.021 18.9448 123.937 19.3702 123.938 19.7994C123.939 20.2287 124.024 20.6536 124.189 21.0498C124.354 21.446 124.596 21.8057 124.901 22.1085C125.205 22.4113 125.566 22.6512 125.964 22.8144C126.361 22.9777 126.787 23.0612 127.217 23.0601C128.085 23.0578 128.916 22.7113 129.529 22.0967C130.142 21.482 130.485 20.6497 130.483 19.7827C130.481 18.9157 130.135 18.0851 129.52 17.4736C128.905 16.8621 128.072 16.5198 127.204 16.5221Z" stroke="#BFBFBF" stroke-width="1.5"/>
<path d="M105.016 59.6131C104.376 59.6131 103.784 59.5091 103.24 59.3011C102.704 59.0851 102.236 58.7851 101.836 58.4011C101.444 58.0091 101.136 57.5531 100.912 57.0331C100.688 56.5131 100.576 55.9411 100.576 55.3171C100.576 54.6931 100.688 54.1211 100.912 53.6011C101.136 53.0811 101.448 52.6291 101.848 52.2451C102.248 51.8531 102.716 51.5531 103.252 51.3451C103.796 51.1291 104.388 51.0211 105.028 51.0211C105.676 51.0211 106.272 51.1331 106.816 51.3571C107.368 51.5731 107.836 51.8971 108.22 52.3291L107.44 53.0851C107.12 52.7491 106.76 52.5011 106.36 52.3411C105.96 52.1731 105.532 52.0891 105.076 52.0891C104.604 52.0891 104.164 52.1691 103.756 52.3291C103.356 52.4891 103.008 52.7131 102.712 53.0011C102.416 53.2891 102.184 53.6331 102.016 54.0331C101.856 54.4251 101.776 54.8531 101.776 55.3171C101.776 55.7811 101.856 56.2131 102.016 56.6131C102.184 57.0051 102.416 57.3451 102.712 57.6331C103.008 57.9211 103.356 58.1451 103.756 58.3051C104.164 58.4651 104.604 58.5451 105.076 58.5451C105.532 58.5451 105.96 58.4651 106.36 58.3051C106.76 58.1371 107.12 57.8811 107.44 57.5371L108.22 58.2931C107.836 58.7251 107.368 59.0531 106.816 59.2771C106.272 59.5011 105.672 59.6131 105.016 59.6131ZM112.101 59.5891C111.461 59.5891 110.893 59.4491 110.397 59.1691C109.901 58.8891 109.509 58.5051 109.221 58.0171C108.933 57.5211 108.789 56.9611 108.789 56.3371C108.789 55.7051 108.933 55.1451 109.221 54.6571C109.509 54.1691 109.901 53.7891 110.397 53.5171C110.893 53.2371 111.461 53.0971 112.101 53.0971C112.733 53.0971 113.297 53.2371 113.793 53.5171C114.297 53.7891 114.689 54.1691 114.969 54.6571C115.257 55.1371 115.401 55.6971 115.401 56.3371C115.401 56.9691 115.257 57.5291 114.969 58.0171C114.689 58.5051 114.297 58.8891 113.793 59.1691C113.297 59.4491 112.733 59.5891 112.101 59.5891ZM112.101 58.5811C112.509 58.5811 112.873 58.4891 113.193 58.3051C113.521 58.1211 113.777 57.8611 113.961 57.5251C114.145 57.1811 114.237 56.7851 114.237 56.3371C114.237 55.8811 114.145 55.4891 113.961 55.1611C113.777 54.8251 113.521 54.5651 113.193 54.3811C112.873 54.1971 112.509 54.1051 112.101 54.1051C111.693 54.1051 111.329 54.1971 111.009 54.3811C110.689 54.5651 110.433 54.8251 110.241 55.1611C110.049 55.4891 109.953 55.8811 109.953 56.3371C109.953 56.7851 110.049 57.1811 110.241 57.5251C110.433 57.8611 110.689 58.1211 111.009 58.3051C111.329 58.4891 111.693 58.5811 112.101 58.5811ZM116.994 59.5171V50.6131H118.146V59.5171H116.994ZM120.346 59.5171V50.6131H121.498V59.5171H120.346ZM126.529 59.5891C125.849 59.5891 125.249 59.4491 124.729 59.1691C124.217 58.8891 123.817 58.5051 123.529 58.0171C123.249 57.5291 123.109 56.9691 123.109 56.3371C123.109 55.7051 123.245 55.1451 123.517 54.6571C123.797 54.1691 124.177 53.7891 124.657 53.5171C125.145 53.2371 125.693 53.0971 126.301 53.0971C126.917 53.0971 127.461 53.2331 127.933 53.5051C128.405 53.7771 128.773 54.1611 129.037 54.6571C129.309 55.1451 129.445 55.7171 129.445 56.3731C129.445 56.4211 129.441 56.4771 129.433 56.5411C129.433 56.6051 129.429 56.6651 129.421 56.7211H124.009V55.8931H128.821L128.353 56.1811C128.361 55.7731 128.277 55.4091 128.101 55.0891C127.925 54.7691 127.681 54.5211 127.369 54.3451C127.065 54.1611 126.709 54.0691 126.301 54.0691C125.901 54.0691 125.545 54.1611 125.233 54.3451C124.921 54.5211 124.677 54.7731 124.501 55.1011C124.325 55.4211 124.237 55.7891 124.237 56.2051V56.3971C124.237 56.8211 124.333 57.2011 124.525 57.5371C124.725 57.8651 125.001 58.1211 125.353 58.3051C125.705 58.4891 126.109 58.5811 126.565 58.5811C126.941 58.5811 127.281 58.5171 127.585 58.3891C127.897 58.2611 128.169 58.0691 128.401 57.8131L129.037 58.5571C128.749 58.8931 128.389 59.1491 127.957 59.3251C127.533 59.5011 127.057 59.5891 126.529 59.5891ZM133.817 59.5891C133.169 59.5891 132.589 59.4491 132.077 59.1691C131.573 58.8891 131.177 58.5051 130.889 58.0171C130.601 57.5291 130.457 56.9691 130.457 56.3371C130.457 55.7051 130.601 55.1451 130.889 54.6571C131.177 54.1691 131.573 53.7891 132.077 53.5171C132.589 53.2371 133.169 53.0971 133.817 53.0971C134.393 53.0971 134.905 53.2131 135.353 53.4451C135.809 53.6691 136.161 54.0051 136.409 54.4531L135.533 55.0171C135.325 54.7051 135.069 54.4771 134.765 54.3331C134.469 54.1811 134.149 54.1051 133.805 54.1051C133.389 54.1051 133.017 54.1971 132.689 54.3811C132.361 54.5651 132.101 54.8251 131.909 55.1611C131.717 55.4891 131.621 55.8811 131.621 56.3371C131.621 56.7931 131.717 57.1891 131.909 57.5251C132.101 57.8611 132.361 58.1211 132.689 58.3051C133.017 58.4891 133.389 58.5811 133.805 58.5811C134.149 58.5811 134.469 58.5091 134.765 58.3651C135.069 58.2131 135.325 57.9811 135.533 57.6691L136.409 58.2211C136.161 58.6611 135.809 59.0011 135.353 59.2411C134.905 59.4731 134.393 59.5891 133.817 59.5891ZM140.167 59.5891C139.527 59.5891 139.031 59.4171 138.679 59.0731C138.327 58.7291 138.151 58.2371 138.151 57.5971V51.7651H139.303V57.5491C139.303 57.8931 139.387 58.1571 139.555 58.3411C139.731 58.5251 139.979 58.6171 140.299 58.6171C140.659 58.6171 140.959 58.5171 141.199 58.3171L141.559 59.1451C141.383 59.2971 141.171 59.4091 140.923 59.4811C140.683 59.5531 140.431 59.5891 140.167 59.5891ZM137.071 54.1051V53.1571H141.127V54.1051H137.071ZM142.951 59.5171V53.1571H144.103V59.5171H142.951ZM143.527 51.9331C143.303 51.9331 143.115 51.8611 142.963 51.7171C142.819 51.5731 142.747 51.3971 142.747 51.1891C142.747 50.9731 142.819 50.7931 142.963 50.6491C143.115 50.5051 143.303 50.4331 143.527 50.4331C143.751 50.4331 143.935 50.5051 144.079 50.6491C144.231 50.7851 144.307 50.9571 144.307 51.1651C144.307 51.3811 144.235 51.5651 144.091 51.7171C143.947 51.8611 143.759 51.9331 143.527 51.9331ZM149.027 59.5891C148.387 59.5891 147.819 59.4491 147.323 59.1691C146.827 58.8891 146.435 58.5051 146.147 58.0171C145.859 57.5211 145.715 56.9611 145.715 56.3371C145.715 55.7051 145.859 55.1451 146.147 54.6571C146.435 54.1691 146.827 53.7891 147.323 53.5171C147.819 53.2371 148.387 53.0971 149.027 53.0971C149.659 53.0971 150.223 53.2371 150.719 53.5171C151.223 53.7891 151.615 54.1691 151.895 54.6571C152.183 55.1371 152.327 55.6971 152.327 56.3371C152.327 56.9691 152.183 57.5291 151.895 58.0171C151.615 58.5051 151.223 58.8891 150.719 59.1691C150.223 59.4491 149.659 59.5891 149.027 59.5891ZM149.027 58.5811C149.435 58.5811 149.799 58.4891 150.119 58.3051C150.447 58.1211 150.703 57.8611 150.887 57.5251C151.071 57.1811 151.163 56.7851 151.163 56.3371C151.163 55.8811 151.071 55.4891 150.887 55.1611C150.703 54.8251 150.447 54.5651 150.119 54.3811C149.799 54.1971 149.435 54.1051 149.027 54.1051C148.619 54.1051 148.255 54.1971 147.935 54.3811C147.615 54.5651 147.359 54.8251 147.167 55.1611C146.975 55.4891 146.879 55.8811 146.879 56.3371C146.879 56.7851 146.975 57.1811 147.167 57.5251C147.359 57.8611 147.615 58.1211 147.935 58.3051C148.255 58.4891 148.619 58.5811 149.027 58.5811ZM153.92 59.5171V53.1571H155.024V54.8731L154.844 54.4171C155.052 54.0011 155.372 53.6771 155.804 53.4451C156.236 53.2131 156.74 53.0971 157.316 53.0971C157.836 53.0971 158.292 53.1971 158.684 53.3971C159.084 53.5971 159.396 53.9011 159.62 54.3091C159.844 54.7171 159.956 55.2331 159.956 55.8571V59.5171H158.804V55.9891C158.804 55.3731 158.652 54.9091 158.348 54.5971C158.052 54.2851 157.632 54.1291 157.088 54.1291C156.68 54.1291 156.324 54.2091 156.02 54.3691C155.716 54.5291 155.48 54.7651 155.312 55.0771C155.152 55.3891 155.072 55.7771 155.072 56.2411V59.5171H153.92Z" fill="#BFBFBF"/>
<path d="M278.125 27.7004C278.125 27.7004 275 30.1003 275 33.1002M267.5 33.1002H282.5M268.75 33.1002L269.387 37.3793C269.678 39.3437 269.825 40.3264 270.53 40.9132C271.235 41.5 272.268 41.5 274.337 41.5H275.665C277.732 41.5 278.765 41.5 279.471 40.912C280.176 40.3264 280.321 39.3437 280.615 37.3793L281.25 33.1002M272.578 24.7761C273.328 24.056 273.749 23.0797 273.749 22.0618C273.749 21.0438 273.328 20.0675 272.578 19.3474C270.222 17.0855 265.038 17.5367 265.038 17.5367C265.038 17.5367 264.567 22.5129 266.923 24.7749C267.674 25.4945 268.691 25.8987 269.751 25.8987C270.811 25.8987 271.828 25.4957 272.578 24.7761ZM278.503 27.3368C278.821 27.6427 279.199 27.8853 279.615 28.0509C280.031 28.2164 280.477 28.3016 280.927 28.3016C281.377 28.3016 281.823 28.2164 282.239 28.0509C282.655 27.8853 283.033 27.6427 283.351 27.3368C285.371 25.3977 284.967 21.133 284.967 21.133C284.967 21.133 280.523 20.7442 278.505 22.6833C278.186 22.9887 277.933 23.3514 277.761 23.7507C277.588 24.1499 277.5 24.5779 277.5 25.0101C277.5 25.4423 277.588 25.8703 277.761 26.2695C277.933 26.6687 278.185 27.0314 278.503 27.3368Z" stroke="#BFBFBF" stroke-width="1.5" stroke-linecap="round" stroke-linejoin="round"/>
<path d="M272.5 25.3007C272.5 25.3007 275 28.3006 275 33.1004" stroke="#BFBFBF" stroke-width="1.5" stroke-linecap="round" stroke-linejoin="round"/>
<path d="M258.26 58.5V50.1H261.536C262.272 50.1 262.9 50.216 263.42 50.448C263.94 50.68 264.34 51.016 264.62 51.456C264.9 51.896 265.04 52.42 265.04 53.028C265.04 53.636 264.9 54.16 264.62 54.6C264.34 55.032 263.94 55.368 263.42 55.608C262.9 55.84 262.272 55.956 261.536 55.956H258.92L259.46 55.392V58.5H258.26ZM259.46 55.512L258.92 54.912H261.5C262.268 54.912 262.848 54.748 263.24 54.42C263.64 54.092 263.84 53.628 263.84 53.028C263.84 52.428 263.64 51.964 263.24 51.636C262.848 51.308 262.268 51.144 261.5 51.144H258.92L259.46 50.544V55.512ZM266.752 58.5V49.596H267.904V58.5H266.752ZM274.052 58.5V57.156L273.992 56.904V54.612C273.992 54.124 273.848 53.748 273.56 53.484C273.28 53.212 272.856 53.076 272.288 53.076C271.912 53.076 271.544 53.14 271.184 53.268C270.824 53.388 270.52 53.552 270.272 53.76L269.792 52.896C270.12 52.632 270.512 52.432 270.968 52.296C271.432 52.152 271.916 52.08 272.42 52.08C273.292 52.08 273.964 52.292 274.436 52.716C274.908 53.14 275.144 53.788 275.144 54.66V58.5H274.052ZM271.964 58.572C271.492 58.572 271.076 58.492 270.716 58.332C270.364 58.172 270.092 57.952 269.9 57.672C269.708 57.384 269.612 57.06 269.612 56.7C269.612 56.356 269.692 56.044 269.852 55.764C270.02 55.484 270.288 55.26 270.656 55.092C271.032 54.924 271.536 54.84 272.168 54.84H274.184V55.668H272.216C271.64 55.668 271.252 55.764 271.052 55.956C270.852 56.148 270.752 56.38 270.752 56.652C270.752 56.964 270.876 57.216 271.124 57.408C271.372 57.592 271.716 57.684 272.156 57.684C272.588 57.684 272.964 57.588 273.284 57.396C273.612 57.204 273.848 56.924 273.992 56.556L274.22 57.348C274.068 57.724 273.8 58.024 273.416 58.248C273.032 58.464 272.548 58.572 271.964 58.572ZM277.276 58.5V52.14H278.38V53.856L278.2 53.4C278.408 52.984 278.728 52.66 279.16 52.428C279.592 52.196 280.096 52.08 280.672 52.08C281.192 52.08 281.648 52.18 282.04 52.38C282.44 52.58 282.752 52.884 282.976 53.292C283.2 53.7 283.312 54.216 283.312 54.84V58.5H282.16V54.972C282.16 54.356 282.008 53.892 281.704 53.58C281.408 53.268 280.988 53.112 280.444 53.112C280.036 53.112 279.68 53.192 279.376 53.352C279.072 53.512 278.836 53.748 278.668 54.06C278.508 54.372 278.428 54.76 278.428 55.224V58.5H277.276ZM287.628 58.572C286.988 58.572 286.492 58.4 286.14 58.056C285.788 57.712 285.612 57.22 285.612 56.58V50.748H286.764V56.532C286.764 56.876 286.848 57.14 287.016 57.324C287.192 57.508 287.44 57.6 287.76 57.6C288.12 57.6 288.42 57.5 288.66 57.3L289.02 58.128C288.844 58.28 288.632 58.392 288.384 58.464C288.144 58.536 287.892 58.572 287.628 58.572ZM284.532 53.088V52.14H288.588V53.088H284.532Z" fill="#BFBFBF"/>
<path d="M336.5 17.5C330.425 17.5 325.5 22.4247 325.5 28.5C325.5 34.5753 330.425 39.5 336.5 39.5C342.575 39.5 347.5 34.5753 347.5 28.5C347.5 22.4247 342.575 17.5 336.5 17.5Z" stroke="#BFBFBF" stroke-width="1.5" stroke-linecap="round" stroke-linejoin="round"/>
<path d="M327.998 35.4802C327.998 35.4802 330.45 32.3496 336.5 32.3496C342.55 32.3496 345.003 35.4802 345.003 35.4802M336.5 28.4996C337.375 28.4996 338.215 28.1519 338.833 27.5331C339.452 26.9142 339.8 26.0748 339.8 25.1996C339.8 24.3244 339.452 23.485 338.833 22.8661C338.215 22.2473 337.375 21.8996 336.5 21.8996C335.625 21.8996 334.785 22.2473 334.167 22.8661C333.548 23.485 333.2 24.3244 333.2 25.1996C333.2 26.0748 333.548 26.9142 334.167 27.5331C334.785 28.1519 335.625 28.4996 336.5 28.4996Z" stroke="#BFBFBF" stroke-width="1.5" stroke-linecap="round" stroke-linejoin="round"/>
<path d="M317.26 58.5V50.1H320.536C321.272 50.1 321.9 50.216 322.42 50.448C322.94 50.68 323.34 51.016 323.62 51.456C323.9 51.896 324.04 52.42 324.04 53.028C324.04 53.636 323.9 54.16 323.62 54.6C323.34 55.032 322.94 55.368 322.42 55.608C321.9 55.84 321.272 55.956 320.536 55.956H317.92L318.46 55.392V58.5H317.26ZM318.46 55.512L317.92 54.912H320.5C321.268 54.912 321.848 54.748 322.24 54.42C322.64 54.092 322.84 53.628 322.84 53.028C322.84 52.428 322.64 51.964 322.24 51.636C321.848 51.308 321.268 51.144 320.5 51.144H317.92L318.46 50.544V55.512ZM325.518 58.5V52.14H326.622V53.868L326.514 53.436C326.69 52.996 326.986 52.66 327.402 52.428C327.818 52.196 328.33 52.08 328.938 52.08V53.196C328.89 53.188 328.842 53.184 328.794 53.184C328.754 53.184 328.714 53.184 328.674 53.184C328.058 53.184 327.57 53.368 327.21 53.736C326.85 54.104 326.67 54.636 326.67 55.332V58.5H325.518ZM333.023 58.572C332.383 58.572 331.815 58.432 331.319 58.152C330.823 57.872 330.431 57.488 330.143 57C329.855 56.504 329.711 55.944 329.711 55.32C329.711 54.688 329.855 54.128 330.143 53.64C330.431 53.152 330.823 52.772 331.319 52.5C331.815 52.22 332.383 52.08 333.023 52.08C333.655 52.08 334.219 52.22 334.715 52.5C335.219 52.772 335.611 53.152 335.891 53.64C336.179 54.12 336.323 54.68 336.323 55.32C336.323 55.952 336.179 56.512 335.891 57C335.611 57.488 335.219 57.872 334.715 58.152C334.219 58.432 333.655 58.572 333.023 58.572ZM333.023 57.564C333.431 57.564 333.795 57.472 334.115 57.288C334.443 57.104 334.699 56.844 334.883 56.508C335.067 56.164 335.159 55.768 335.159 55.32C335.159 54.864 335.067 54.472 334.883 54.144C334.699 53.808 334.443 53.548 334.115 53.364C333.795 53.18 333.431 53.088 333.023 53.088C332.615 53.088 332.251 53.18 331.931 53.364C331.611 53.548 331.355 53.808 331.163 54.144C330.971 54.472 330.875 54.864 330.875 55.32C330.875 55.768 330.971 56.164 331.163 56.508C331.355 56.844 331.611 57.104 331.931 57.288C332.251 57.472 332.615 57.564 333.023 57.564ZM338.084 58.5V51.576C338.084 50.952 338.264 50.456 338.624 50.088C338.992 49.712 339.512 49.524 340.184 49.524C340.432 49.524 340.668 49.556 340.892 49.62C341.124 49.676 341.32 49.768 341.48 49.896L341.132 50.772C341.012 50.676 340.876 50.604 340.724 50.556C340.572 50.5 340.412 50.472 340.244 50.472C339.908 50.472 339.652 50.568 339.476 50.76C339.3 50.944 339.212 51.22 339.212 51.588V52.44L339.236 52.968V58.5H338.084ZM337.004 53.088V52.14H341.06V53.088H337.004ZM342.152 58.5V52.14H343.304V58.5H342.152ZM342.74 50.916C342.516 50.916 342.328 50.844 342.176 50.7C342.032 50.556 341.96 50.38 341.96 50.172C341.96 49.956 342.032 49.776 342.176 49.632C342.328 49.488 342.516 49.416 342.74 49.416C342.964 49.416 343.148 49.488 343.292 49.632C343.444 49.768 343.52 49.94 343.52 50.148C343.52 50.364 343.448 50.548 343.304 50.7C343.16 50.844 342.972 50.916 342.74 50.916ZM345.498 58.5V49.596H346.65V58.5H345.498ZM351.682 58.572C351.002 58.572 350.402 58.432 349.882 58.152C349.37 57.872 348.97 57.488 348.682 57C348.402 56.512 348.262 55.952 348.262 55.32C348.262 54.688 348.398 54.128 348.67 53.64C348.95 53.152 349.33 52.772 349.81 52.5C350.298 52.22 350.846 52.08 351.454 52.08C352.07 52.08 352.614 52.216 353.086 52.488C353.558 52.76 353.926 53.144 354.19 53.64C354.462 54.128 354.598 54.7 354.598 55.356C354.598 55.404 354.594 55.46 354.586 55.524C354.586 55.588 354.582 55.648 354.574 55.704H349.162V54.876H353.974L353.506 55.164C353.514 54.756 353.43 54.392 353.254 54.072C353.078 53.752 352.834 53.504 352.522 53.328C352.218 53.144 351.862 53.052 351.454 53.052C351.054 53.052 350.698 53.144 350.386 53.328C350.074 53.504 349.83 53.756 349.654 54.084C349.478 54.404 349.39 54.772 349.39 55.188V55.38C349.39 55.804 349.486 56.184 349.678 56.52C349.878 56.848 350.154 57.104 350.506 57.288C350.858 57.472 351.262 57.564 351.718 57.564C352.094 57.564 352.434 57.5 352.738 57.372C353.05 57.244 353.322 57.052 353.554 56.796L354.19 57.54C353.902 57.876 353.542 58.132 353.11 58.308C352.686 58.484 352.21 58.572 351.682 58.572Z" fill="#BFBFBF"/>
</svg>
