<svg width="22" height="24" viewBox="0 0 22 24" fill="none" xmlns="http://www.w3.org/2000/svg">
<path d="M10.9951 0.5C11.4 0.5 11.7599 0.6027 12.0859 0.80957L12.2236 0.904297L20.6846 7.26367L20.6904 7.26855C20.9418 7.45141 21.1382 7.6831 21.2822 7.9707L21.2832 7.97266C21.428 8.25944 21.5 8.55999 21.5 8.88086V22.4404C21.4999 22.717 21.4022 22.9559 21.1777 23.1787C20.9532 23.4016 20.7109 23.5 20.4287 23.5H14.3252C14.1484 23.5 14.007 23.4588 13.8867 23.3779L13.7725 23.2832C13.628 23.1389 13.5557 22.9686 13.5557 22.7393V14.3213H8.44434V22.7393C8.44434 22.9704 8.37142 23.1404 8.22754 23.2832C8.08324 23.4264 7.91113 23.4999 7.67676 23.5H1.57129C1.28909 23.5 1.04679 23.4016 0.822266 23.1787C0.597832 22.9559 0.500092 22.7171 0.5 22.4404V8.88086C0.5 8.55999 0.571982 8.25944 0.716797 7.97266C0.861997 7.68521 1.05861 7.45274 1.30957 7.26953L1.31543 7.26465L9.77734 0.90332L9.7793 0.902344C10.1334 0.63396 10.5327 0.500032 10.9951 0.5ZM11 1.06152C10.7053 1.06152 10.4315 1.14535 10.1963 1.31543L10.127 1.37012L1.66504 7.7002L1.64551 7.71582C1.47996 7.85301 1.34256 8.01521 1.23926 8.20215C1.15175 8.36056 1.09967 8.53034 1.08008 8.70605L1.07129 8.88086V22.9404H7.87305V14.5205C7.87305 14.2915 7.94585 14.1218 8.09082 13.9785L8.09277 13.9775C8.23723 13.8336 8.40885 13.7598 8.64258 13.7598H13.3574C13.5911 13.7598 13.7644 13.8329 13.9102 13.9775C14.0543 14.1207 14.127 14.2909 14.127 14.5205V22.9404H20.9287V8.88086C20.9287 8.64487 20.8757 8.41722 20.7637 8.20801C20.6602 8.01493 20.5198 7.84865 20.3486 7.71094L20.3418 7.70605L20.335 7.7002L11.874 1.37012C11.6233 1.16419 11.3248 1.06152 11 1.06152Z" fill="white" stroke="#BFBFBF"/>
</svg>
