<svg width="189" height="33" viewBox="0 0 189 33" fill="none" xmlns="http://www.w3.org/2000/svg">
<rect width="189" height="33" rx="10" fill="#F5F5F5" fill-opacity="0.6"/>
<path d="M22.3881 22V11.8182H26.0174C26.8095 11.8182 27.4658 11.9624 27.9862 12.2507C28.5065 12.5391 28.896 12.9335 29.1545 13.4339C29.413 13.9311 29.5423 14.4912 29.5423 15.1143C29.5423 15.7408 29.4113 16.3042 29.1495 16.8047C28.891 17.3018 28.4999 17.6963 27.9762 17.9879C27.4558 18.2763 26.8013 18.4205 26.0124 18.4205H23.5167V17.1179H25.8732C26.3737 17.1179 26.7797 17.0317 27.0913 16.8594C27.4028 16.6837 27.6315 16.4451 27.7773 16.1435C27.9232 15.8419 27.9961 15.4988 27.9961 15.1143C27.9961 14.7299 27.9232 14.3885 27.7773 14.0902C27.6315 13.7919 27.4012 13.5582 27.0863 13.3892C26.7747 13.2202 26.3638 13.1357 25.8533 13.1357H23.9244V22H22.3881ZM34.3448 22.1541C33.6289 22.1541 33.0041 21.9901 32.4705 21.6619C31.9369 21.3338 31.5226 20.8748 31.2276 20.2848C30.9326 19.6948 30.7852 19.0054 30.7852 18.2166C30.7852 17.4245 30.9326 16.7318 31.2276 16.1385C31.5226 15.5452 31.9369 15.0845 32.4705 14.7564C33.0041 14.4283 33.6289 14.2642 34.3448 14.2642C35.0607 14.2642 35.6855 14.4283 36.2191 14.7564C36.7527 15.0845 37.167 15.5452 37.462 16.1385C37.757 16.7318 37.9045 17.4245 37.9045 18.2166C37.9045 19.0054 37.757 19.6948 37.462 20.2848C37.167 20.8748 36.7527 21.3338 36.2191 21.6619C35.6855 21.9901 35.0607 22.1541 34.3448 22.1541ZM34.3498 20.9062C34.8138 20.9062 35.1983 20.7836 35.5032 20.5384C35.8081 20.2931 36.0335 19.9666 36.1793 19.5589C36.3285 19.1513 36.4031 18.7022 36.4031 18.2116C36.4031 17.7244 36.3285 17.277 36.1793 16.8693C36.0335 16.4583 35.8081 16.1286 35.5032 15.88C35.1983 15.6314 34.8138 15.5071 34.3498 15.5071C33.8825 15.5071 33.4947 15.6314 33.1864 15.88C32.8815 16.1286 32.6545 16.4583 32.5053 16.8693C32.3595 17.277 32.2866 17.7244 32.2866 18.2116C32.2866 18.7022 32.3595 19.1513 32.5053 19.5589C32.6545 19.9666 32.8815 20.2931 33.1864 20.5384C33.4947 20.7836 33.8825 20.9062 34.3498 20.9062ZM45.286 16.228L43.9387 16.4666C43.8824 16.2943 43.7929 16.1302 43.6703 15.9744C43.551 15.8187 43.3886 15.6911 43.1831 15.5916C42.9776 15.4922 42.7207 15.4425 42.4125 15.4425C41.9915 15.4425 41.6402 15.5369 41.3585 15.7259C41.0768 15.9115 40.9359 16.1518 40.9359 16.4467C40.9359 16.7019 41.0304 16.9074 41.2193 17.0632C41.4082 17.219 41.7131 17.3466 42.1341 17.446L43.3471 17.7244C44.0498 17.8868 44.5734 18.1371 44.9181 18.4751C45.2628 18.8132 45.4352 19.2524 45.4352 19.7926C45.4352 20.25 45.3026 20.6577 45.0375 21.0156C44.7756 21.3703 44.4094 21.6487 43.9387 21.8509C43.4714 22.053 42.9295 22.1541 42.313 22.1541C41.4579 22.1541 40.7602 21.9718 40.22 21.6072C39.6797 21.2393 39.3483 20.7173 39.2257 20.0412L40.6625 19.8224C40.752 20.197 40.9359 20.4804 41.2143 20.6726C41.4927 20.8615 41.8556 20.956 42.3031 20.956C42.7903 20.956 43.1797 20.8549 43.4714 20.6527C43.7631 20.4472 43.9089 20.197 43.9089 19.902C43.9089 19.6634 43.8194 19.4628 43.6404 19.3004C43.4648 19.138 43.1947 19.0154 42.8301 18.9325L41.5375 18.6491C40.8249 18.4867 40.2979 18.2282 39.9565 17.8736C39.6184 17.5189 39.4494 17.0698 39.4494 16.5263C39.4494 16.0755 39.5753 15.6811 39.8272 15.343C40.0791 15.005 40.4271 14.7415 40.8713 14.5526C41.3154 14.3603 41.8242 14.2642 42.3975 14.2642C43.2228 14.2642 43.8725 14.4432 44.3464 14.8011C44.8204 15.1558 45.1336 15.6314 45.286 16.228ZM47.0696 22V14.3636H48.5561V22H47.0696ZM47.8203 13.1854C47.5618 13.1854 47.3397 13.0992 47.1541 12.9268C46.9718 12.7512 46.8807 12.5424 46.8807 12.3004C46.8807 12.0552 46.9718 11.8464 47.1541 11.674C47.3397 11.4983 47.5618 11.4105 47.8203 11.4105C48.0788 11.4105 48.2992 11.4983 48.4815 11.674C48.6671 11.8464 48.7599 12.0552 48.7599 12.3004C48.7599 12.5424 48.6671 12.7512 48.4815 12.9268C48.2992 13.0992 48.0788 13.1854 47.8203 13.1854ZM54.1206 14.3636V15.5568H49.9494V14.3636H54.1206ZM51.068 12.5341H52.5545V19.7578C52.5545 20.0462 52.5976 20.2633 52.6838 20.4091C52.7699 20.5516 52.881 20.6494 53.0169 20.7024C53.1561 20.7521 53.3069 20.777 53.4693 20.777C53.5886 20.777 53.693 20.7687 53.7825 20.7521C53.872 20.7356 53.9416 20.7223 53.9913 20.7124L54.2598 21.9403C54.1736 21.9735 54.051 22.0066 53.8919 22.0398C53.7328 22.0762 53.5339 22.0961 53.2953 22.0994C52.9042 22.1061 52.5396 22.0365 52.2015 21.8906C51.8635 21.7448 51.59 21.5194 51.3812 21.2145C51.1724 20.9096 51.068 20.5268 51.068 20.0661V12.5341ZM55.7649 22V14.3636H57.2514V22H55.7649ZM56.5156 13.1854C56.2571 13.1854 56.035 13.0992 55.8494 12.9268C55.6671 12.7512 55.576 12.5424 55.576 12.3004C55.576 12.0552 55.6671 11.8464 55.8494 11.674C56.035 11.4983 56.2571 11.4105 56.5156 11.4105C56.7741 11.4105 56.9946 11.4983 57.1768 11.674C57.3625 11.8464 57.4553 12.0552 57.4553 12.3004C57.4553 12.5424 57.3625 12.7512 57.1768 12.9268C56.9946 13.0992 56.7741 13.1854 56.5156 13.1854ZM62.4679 22.1541C61.752 22.1541 61.1272 21.9901 60.5936 21.6619C60.06 21.3338 59.6457 20.8748 59.3507 20.2848C59.0557 19.6948 58.9082 19.0054 58.9082 18.2166C58.9082 17.4245 59.0557 16.7318 59.3507 16.1385C59.6457 15.5452 60.06 15.0845 60.5936 14.7564C61.1272 14.4283 61.752 14.2642 62.4679 14.2642C63.1838 14.2642 63.8085 14.4283 64.3422 14.7564C64.8758 15.0845 65.2901 15.5452 65.585 16.1385C65.88 16.7318 66.0275 17.4245 66.0275 18.2166C66.0275 19.0054 65.88 19.6948 65.585 20.2848C65.2901 20.8748 64.8758 21.3338 64.3422 21.6619C63.8085 21.9901 63.1838 22.1541 62.4679 22.1541ZM62.4728 20.9062C62.9368 20.9062 63.3213 20.7836 63.6262 20.5384C63.9312 20.2931 64.1565 19.9666 64.3024 19.5589C64.4515 19.1513 64.5261 18.7022 64.5261 18.2116C64.5261 17.7244 64.4515 17.277 64.3024 16.8693C64.1565 16.4583 63.9312 16.1286 63.6262 15.88C63.3213 15.6314 62.9368 15.5071 62.4728 15.5071C62.0055 15.5071 61.6177 15.6314 61.3095 15.88C61.0046 16.1286 60.7775 16.4583 60.6284 16.8693C60.4825 17.277 60.4096 17.7244 60.4096 18.2116C60.4096 18.7022 60.4825 19.1513 60.6284 19.5589C60.7775 19.9666 61.0046 20.2931 61.3095 20.5384C61.6177 20.7836 62.0055 20.9062 62.4728 20.9062ZM69.1733 17.4659V22H67.6868V14.3636H69.1136V15.6065H69.2081C69.3838 15.2022 69.6589 14.8774 70.0334 14.6321C70.4112 14.3868 70.8868 14.2642 71.4602 14.2642C71.9806 14.2642 72.4363 14.3736 72.8274 14.5923C73.2185 14.8078 73.5218 15.1293 73.7372 15.5568C73.9527 15.9844 74.0604 16.513 74.0604 17.1428V22H72.5739V17.3217C72.5739 16.7682 72.4297 16.3357 72.1413 16.0241C71.853 15.7093 71.4569 15.5518 70.9531 15.5518C70.6084 15.5518 70.3018 15.6264 70.0334 15.7756C69.7682 15.9247 69.5578 16.1435 69.402 16.4318C69.2495 16.7169 69.1733 17.0616 69.1733 17.4659ZM79.7591 24.8636V14.3636H81.2108V15.6016H81.335C81.4212 15.4425 81.5455 15.2585 81.7079 15.0497C81.8703 14.8409 82.0957 14.6586 82.3841 14.5028C82.6724 14.3438 83.0536 14.2642 83.5275 14.2642C84.144 14.2642 84.6942 14.42 85.1781 14.7315C85.662 15.0431 86.0415 15.4922 86.3166 16.0788C86.595 16.6655 86.7342 17.3714 86.7342 18.1967C86.7342 19.022 86.5967 19.7296 86.3216 20.3196C86.0465 20.9062 85.6686 21.3587 85.188 21.6768C84.7074 21.9917 84.1589 22.1491 83.5424 22.1491C83.0784 22.1491 82.6989 22.0713 82.4039 21.9155C82.1123 21.7597 81.8836 21.5774 81.7179 21.3686C81.5521 21.1598 81.4245 20.9742 81.335 20.8118H81.2456V24.8636H79.7591ZM81.2157 18.1818C81.2157 18.7187 81.2936 19.1894 81.4494 19.5938C81.6052 19.9981 81.8306 20.3146 82.1255 20.5433C82.4205 20.7687 82.7818 20.8814 83.2093 20.8814C83.6535 20.8814 84.0247 20.7637 84.323 20.5284C84.6213 20.2898 84.8467 19.9666 84.9991 19.5589C85.1549 19.1513 85.2328 18.6922 85.2328 18.1818C85.2328 17.678 85.1565 17.2256 85.0041 16.8246C84.8549 16.4235 84.6296 16.107 84.3279 15.875C84.0297 15.643 83.6568 15.527 83.2093 15.527C82.7785 15.527 82.4139 15.638 82.1156 15.8601C81.8206 16.0821 81.5969 16.392 81.4444 16.7898C81.292 17.1875 81.2157 17.6515 81.2157 18.1818ZM89.8862 11.8182V22H88.3997V11.8182H89.8862ZM94.1083 22.169C93.6244 22.169 93.1869 22.0795 92.7958 21.9006C92.4047 21.7183 92.0948 21.4548 91.8661 21.1101C91.6407 20.7654 91.5281 20.3428 91.5281 19.8423C91.5281 19.4115 91.6109 19.0568 91.7766 18.7784C91.9424 18.5 92.1661 18.2796 92.4478 18.1172C92.7295 17.9548 93.0444 17.8321 93.3924 17.7493C93.7404 17.6664 94.0951 17.6035 94.4563 17.5604C94.9137 17.5073 95.2849 17.4643 95.57 17.4311C95.855 17.3946 96.0621 17.3366 96.1914 17.2571C96.3207 17.1776 96.3853 17.0483 96.3853 16.8693V16.8345C96.3853 16.4003 96.2627 16.0639 96.0174 15.8253C95.7755 15.5866 95.4142 15.4673 94.9336 15.4673C94.4331 15.4673 94.0387 15.5784 93.7504 15.8004C93.4653 16.0192 93.2681 16.2628 93.1587 16.5312L91.7617 16.2131C91.9274 15.7491 92.1694 15.3745 92.4876 15.0895C92.8091 14.8011 93.1786 14.5923 93.5962 14.4631C94.0138 14.3305 94.453 14.2642 94.9137 14.2642C95.2186 14.2642 95.5418 14.3007 95.8832 14.3736C96.2279 14.4432 96.5494 14.5724 96.8477 14.7614C97.1493 14.9503 97.3962 15.2204 97.5884 15.5717C97.7807 15.9197 97.8768 16.3722 97.8768 16.929V22H96.4251V20.956H96.3654C96.2693 21.1482 96.1251 21.3371 95.9329 21.5227C95.7406 21.7083 95.4937 21.8625 95.1921 21.9851C94.8905 22.1077 94.5292 22.169 94.1083 22.169ZM94.4315 20.9759C94.8424 20.9759 95.1938 20.8946 95.4854 20.7322C95.7804 20.5698 96.0041 20.3577 96.1566 20.0959C96.3124 19.8307 96.3903 19.5473 96.3903 19.2457V18.2614C96.3372 18.3144 96.2345 18.3641 96.082 18.4105C95.9329 18.4536 95.7622 18.4917 95.57 18.5249C95.3777 18.5547 95.1905 18.5829 95.0082 18.6094C94.8259 18.6326 94.6734 18.6525 94.5508 18.669C94.2624 18.7055 93.9989 18.7668 93.7603 18.853C93.525 18.9392 93.3361 19.0634 93.1935 19.2259C93.0543 19.3849 92.9847 19.5971 92.9847 19.8622C92.9847 20.2301 93.1206 20.5085 93.3924 20.6974C93.6642 20.883 94.0105 20.9759 94.4315 20.9759ZM101.343 17.4659V22H99.8567V14.3636H101.284V15.6065H101.378C101.554 15.2022 101.829 14.8774 102.203 14.6321C102.581 14.3868 103.057 14.2642 103.63 14.2642C104.151 14.2642 104.606 14.3736 104.997 14.5923C105.388 14.8078 105.692 15.1293 105.907 15.5568C106.123 15.9844 106.23 16.513 106.23 17.1428V22H104.744V17.3217C104.744 16.7682 104.6 16.3357 104.311 16.0241C104.023 15.7093 103.627 15.5518 103.123 15.5518C102.778 15.5518 102.472 15.6264 102.203 15.7756C101.938 15.9247 101.728 16.1435 101.572 16.4318C101.419 16.7169 101.343 17.0616 101.343 17.4659ZM111.789 14.3636V15.5568H107.617V14.3636H111.789ZM108.736 12.5341H110.222V19.7578C110.222 20.0462 110.266 20.2633 110.352 20.4091C110.438 20.5516 110.549 20.6494 110.685 20.7024C110.824 20.7521 110.975 20.777 111.137 20.777C111.257 20.777 111.361 20.7687 111.45 20.7521C111.54 20.7356 111.61 20.7223 111.659 20.7124L111.928 21.9403C111.842 21.9735 111.719 22.0066 111.56 22.0398C111.401 22.0762 111.202 22.0961 110.963 22.0994C110.572 22.1061 110.208 22.0365 109.869 21.8906C109.531 21.7448 109.258 21.5194 109.049 21.2145C108.84 20.9096 108.736 20.5268 108.736 20.0661V12.5341ZM117.138 22V14.3636H118.624V22H117.138ZM117.889 13.1854C117.63 13.1854 117.408 13.0992 117.222 12.9268C117.04 12.7512 116.949 12.5424 116.949 12.3004C116.949 12.0552 117.04 11.8464 117.222 11.674C117.408 11.4983 117.63 11.4105 117.889 11.4105C118.147 11.4105 118.368 11.4983 118.55 11.674C118.735 11.8464 118.828 12.0552 118.828 12.3004C118.828 12.5424 118.735 12.7512 118.55 12.9268C118.368 13.0992 118.147 13.1854 117.889 13.1854ZM122.111 17.4659V22H120.624V14.3636H122.051V15.6065H122.146C122.321 15.2022 122.596 14.8774 122.971 14.6321C123.349 14.3868 123.824 14.2642 124.398 14.2642C124.918 14.2642 125.374 14.3736 125.765 14.5923C126.156 14.8078 126.459 15.1293 126.675 15.5568C126.89 15.9844 126.998 16.513 126.998 17.1428V22H125.511V17.3217C125.511 16.7682 125.367 16.3357 125.079 16.0241C124.79 15.7093 124.394 15.5518 123.891 15.5518C123.546 15.5518 123.239 15.6264 122.971 15.7756C122.706 15.9247 122.495 16.1435 122.339 16.4318C122.187 16.7169 122.111 17.0616 122.111 17.4659ZM136.331 14.3636V15.5568H132.015V14.3636H136.331ZM133.199 22V13.4787C133.199 13.0014 133.303 12.6053 133.512 12.2905C133.721 11.9723 133.997 11.7353 134.342 11.5795C134.687 11.4205 135.061 11.3409 135.466 11.3409C135.764 11.3409 136.019 11.3658 136.231 11.4155C136.443 11.4619 136.601 11.505 136.704 11.5447L136.356 12.7479C136.286 12.728 136.197 12.7048 136.087 12.6783C135.978 12.6484 135.845 12.6335 135.689 12.6335C135.328 12.6335 135.07 12.723 134.914 12.902C134.761 13.081 134.685 13.3395 134.685 13.6776V22H133.199ZM137.865 22V14.3636H139.301V15.5767H139.381C139.52 15.1657 139.765 14.8426 140.117 14.6072C140.471 14.3686 140.872 14.2493 141.32 14.2493C141.413 14.2493 141.522 14.2526 141.648 14.2592C141.777 14.2659 141.878 14.2741 141.951 14.2841V15.706C141.892 15.6894 141.785 15.6712 141.633 15.6513C141.481 15.6281 141.328 15.6165 141.176 15.6165C140.824 15.6165 140.511 15.6911 140.236 15.8402C139.964 15.986 139.749 16.1899 139.59 16.4517C139.431 16.7102 139.351 17.0052 139.351 17.3366V22H137.865ZM145.392 22.169C144.908 22.169 144.47 22.0795 144.079 21.9006C143.688 21.7183 143.378 21.4548 143.149 21.1101C142.924 20.7654 142.811 20.3428 142.811 19.8423C142.811 19.4115 142.894 19.0568 143.06 18.7784C143.226 18.5 143.449 18.2796 143.731 18.1172C144.013 17.9548 144.328 17.8321 144.676 17.7493C145.024 17.6664 145.378 17.6035 145.74 17.5604C146.197 17.5073 146.568 17.4643 146.853 17.4311C147.138 17.3946 147.345 17.3366 147.475 17.2571C147.604 17.1776 147.669 17.0483 147.669 16.8693V16.8345C147.669 16.4003 147.546 16.0639 147.301 15.8253C147.059 15.5866 146.697 15.4673 146.217 15.4673C145.716 15.4673 145.322 15.5784 145.034 15.8004C144.749 16.0192 144.551 16.2628 144.442 16.5312L143.045 16.2131C143.211 15.7491 143.453 15.3745 143.771 15.0895C144.092 14.8011 144.462 14.5923 144.879 14.4631C145.297 14.3305 145.736 14.2642 146.197 14.2642C146.502 14.2642 146.825 14.3007 147.166 14.3736C147.511 14.4432 147.833 14.5724 148.131 14.7614C148.432 14.9503 148.679 15.2204 148.872 15.5717C149.064 15.9197 149.16 16.3722 149.16 16.929V22H147.708V20.956H147.649C147.552 21.1482 147.408 21.3371 147.216 21.5227C147.024 21.7083 146.777 21.8625 146.475 21.9851C146.174 22.1077 145.812 22.169 145.392 22.169ZM145.715 20.9759C146.126 20.9759 146.477 20.8946 146.769 20.7322C147.064 20.5698 147.287 20.3577 147.44 20.0959C147.596 19.8307 147.673 19.5473 147.673 19.2457V18.2614C147.62 18.3144 147.518 18.3641 147.365 18.4105C147.216 18.4536 147.045 18.4917 146.853 18.5249C146.661 18.5547 146.474 18.5829 146.291 18.6094C146.109 18.6326 145.957 18.6525 145.834 18.669C145.546 18.7055 145.282 18.7668 145.044 18.853C144.808 18.9392 144.619 19.0634 144.477 19.2259C144.338 19.3849 144.268 19.5971 144.268 19.8622C144.268 20.2301 144.404 20.5085 144.676 20.6974C144.947 20.883 145.294 20.9759 145.715 20.9759ZM151.14 22V14.3636H152.567V15.6065H152.661C152.82 15.1856 153.08 14.8575 153.442 14.6222C153.803 14.3835 154.236 14.2642 154.739 14.2642C155.25 14.2642 155.677 14.3835 156.022 14.6222C156.37 14.8608 156.627 15.1889 156.793 15.6065H156.872C157.054 15.1989 157.344 14.8741 157.742 14.6321C158.14 14.3868 158.614 14.2642 159.164 14.2642C159.857 14.2642 160.422 14.4813 160.859 14.9155C161.3 15.3497 161.521 16.0043 161.521 16.8793V22H160.034V17.0185C160.034 16.5014 159.893 16.1269 159.612 15.8949C159.33 15.6629 158.993 15.5469 158.602 15.5469C158.118 15.5469 157.742 15.696 157.474 15.9943C157.205 16.2893 157.071 16.6688 157.071 17.1328V22H155.589V16.924C155.589 16.5097 155.46 16.1766 155.202 15.9247C154.943 15.6728 154.607 15.5469 154.192 15.5469C153.911 15.5469 153.651 15.6214 153.412 15.7706C153.177 15.9164 152.986 16.1203 152.84 16.3821C152.698 16.6439 152.626 16.9472 152.626 17.2919V22H151.14ZM166.804 22.1541C166.052 22.1541 165.404 21.9934 164.86 21.6719C164.32 21.3471 163.902 20.8913 163.607 20.3047C163.316 19.7147 163.17 19.0237 163.17 18.2315C163.17 17.4493 163.316 16.7599 163.607 16.1634C163.902 15.5668 164.313 15.1011 164.84 14.7663C165.371 14.4316 165.99 14.2642 166.7 14.2642C167.131 14.2642 167.548 14.3355 167.953 14.478C168.357 14.6205 168.72 14.8442 169.041 15.1491C169.363 15.4541 169.616 15.8501 169.802 16.3374C169.988 16.8213 170.08 17.4096 170.08 18.1023V18.6293H164.01V17.5156H168.624C168.624 17.1245 168.544 16.7782 168.385 16.4766C168.226 16.1716 168.002 15.9313 167.714 15.7557C167.429 15.58 167.094 15.4922 166.71 15.4922C166.292 15.4922 165.927 15.5949 165.616 15.8004C165.308 16.0026 165.069 16.2678 164.9 16.5959C164.734 16.9207 164.651 17.2737 164.651 17.6548V18.5249C164.651 19.0353 164.741 19.4695 164.92 19.8274C165.102 20.1854 165.356 20.4588 165.681 20.6477C166.005 20.8333 166.385 20.9261 166.819 20.9261C167.101 20.9261 167.358 20.8864 167.59 20.8068C167.822 20.724 168.022 20.6013 168.191 20.4389C168.36 20.2765 168.49 20.076 168.579 19.8374L169.986 20.0909C169.873 20.5052 169.671 20.8681 169.379 21.1797C169.091 21.4879 168.728 21.7282 168.291 21.9006C167.856 22.0696 167.361 22.1541 166.804 22.1541Z" fill="black" fill-opacity="0.85"/>
</svg>
