<svg width="26" height="26" viewBox="0 0 26 26" fill="none" xmlns="http://www.w3.org/2000/svg">
<path d="M18.2129 20.8865L5.12207 20.92C3.96477 20.923 2.85397 20.4666 2.03405 19.6513C1.21413 18.836 0.752244 17.7285 0.750004 16.5726C0.747765 15.4166 1.20536 14.3067 2.02211 13.4872C2.83886 12.6677 3.94788 12.2057 5.10518 12.2027L20.3779 12.1636C21.5352 12.1606 22.6442 11.6985 23.4609 10.879C24.2777 10.0595 24.7353 8.9497 24.733 7.79371C24.7308 6.63772 24.2689 5.53025 23.449 4.71494C22.6291 3.89963 21.5183 3.44326 20.361 3.44623L13.2875 3.46436M21.4804 18.1539C20.6124 18.1562 19.7806 18.5027 19.1681 19.1173C18.5555 19.732 18.2123 20.5643 18.214 21.4313C18.2157 22.2983 18.5621 23.1289 19.177 23.7404C19.792 24.3519 20.6251 24.6942 21.493 24.6919C22.361 24.6897 23.1928 24.3432 23.8053 23.7285C24.4179 23.1139 24.7611 22.2815 24.7594 21.4145C24.7577 20.5476 24.4113 19.717 23.7964 19.1055C23.1815 18.494 22.3484 18.1517 21.4804 18.1539ZM9.44664 0.750023C9.01686 0.751125 8.59145 0.836771 8.1947 1.00207C7.79796 1.16737 7.43764 1.40909 7.13433 1.71342C6.83102 2.01776 6.59065 2.37875 6.42695 2.77578C6.26325 3.17282 6.17942 3.59812 6.18025 4.02741C6.18109 4.4567 6.26656 4.88157 6.4318 5.27777C6.59704 5.67396 6.8388 6.03371 7.14329 6.33649C7.44778 6.63926 7.80902 6.87913 8.20641 7.0424C8.60379 7.20566 9.02952 7.28912 9.4593 7.28802C10.3273 7.2858 11.159 6.93925 11.7716 6.32462C12.3842 5.70999 12.7274 4.87763 12.7257 4.01063C12.724 3.14364 12.3776 2.31304 11.7627 1.70156C11.1477 1.09008 10.3146 0.747798 9.44664 0.750023Z" stroke="#BFBFBF" stroke-width="1.5"/>
</svg>
