<svg width="22" height="26" viewBox="0 0 22 26" fill="none" xmlns="http://www.w3.org/2000/svg">
<path d="M13.8746 10.9504C13.8746 10.9504 10.7496 13.3503 10.7496 16.3502M3.2497 16.3502H18.2496M4.49969 16.3502L5.13719 20.6293C5.42843 22.5937 5.57468 23.5764 6.27968 24.1632C6.98467 24.75 8.01841 24.75 10.0871 24.75H11.4146C13.4821 24.75 14.5146 24.75 15.2209 24.162C15.9259 23.5764 16.0709 22.5937 16.3646 20.6293L16.9996 16.3502M8.32841 8.02608C9.07798 7.30604 9.49905 6.32973 9.49905 5.31176C9.49905 4.2938 9.07798 3.31749 8.32841 2.59744C5.97218 0.335505 0.788469 0.786692 0.788469 0.786692C0.788469 0.786692 0.317223 5.76295 2.67345 8.02488C3.42352 8.74446 4.44053 9.14867 5.50093 9.14867C6.56134 9.14867 7.57835 8.74566 8.32841 8.02608ZM14.2534 10.5868C14.5715 10.8927 14.9493 11.1353 15.3652 11.3009C15.7811 11.4664 16.2269 11.5516 16.6771 11.5516C17.1273 11.5516 17.5731 11.4664 17.989 11.3009C18.4049 11.1353 18.7827 10.8927 19.1008 10.5868C21.1208 8.64766 20.7171 4.38299 20.7171 4.38299C20.7171 4.38299 16.2734 3.9942 14.2546 5.93334C13.936 6.23872 13.6832 6.60141 13.5108 7.00065C13.3383 7.3999 13.2496 7.82787 13.2496 8.26008C13.2496 8.69229 13.3383 9.12026 13.5108 9.5195C13.6832 9.91875 13.9348 10.2814 14.2534 10.5868Z" stroke="#BFBFBF" stroke-width="1.5" stroke-linecap="round" stroke-linejoin="round"/>
<path d="M8.24969 8.55066C8.24969 8.55066 10.7497 11.5506 10.7497 16.3504" stroke="#BFBFBF" stroke-width="1.5" stroke-linecap="round" stroke-linejoin="round"/>
</svg>
