<svg width="24" height="24" viewBox="0 0 24 24" fill="none" xmlns="http://www.w3.org/2000/svg">
<path d="M11.75 0.75C5.6747 0.75 0.75 5.6747 0.75 11.75C0.75 17.8253 5.6747 22.75 11.75 22.75C17.8253 22.75 22.75 17.8253 22.75 11.75C22.75 5.6747 17.8253 0.75 11.75 0.75Z" stroke="#BFBFBF" stroke-width="1.5" stroke-linecap="round" stroke-linejoin="round"/>
<path d="M3.24811 18.7302C3.24811 18.7302 5.70001 15.5996 11.75 15.5996C17.8 15.5996 20.253 18.7302 20.253 18.7302M11.75 11.7496C12.6252 11.7496 13.4646 11.4019 14.0835 10.7831C14.7023 10.1642 15.05 9.32481 15.05 8.4496C15.05 7.57438 14.7023 6.73501 14.0835 6.11614C13.4646 5.49727 12.6252 5.1496 11.75 5.1496C10.8748 5.1496 10.0354 5.49727 9.41656 6.11614C8.79769 6.73501 8.45001 7.57438 8.45001 8.4496C8.45001 9.32481 8.79769 10.1642 9.41656 10.7831C10.0354 11.4019 10.8748 11.7496 11.75 11.7496Z" stroke="#BFBFBF" stroke-width="1.5" stroke-linecap="round" stroke-linejoin="round"/>
</svg>
